<svg fill="none" height="14" viewBox="0 0 14 14" width="14" xmlns="http://www.w3.org/2000/svg" xmlns:xlink="http://www.w3.org/1999/xlink"><clipPath id="a"><path d="m0 0h14v14h-14z"/></clipPath><g clip-path="url(#a)"><path d="m7 13.5c3.5899 0 6.5-2.9101 6.5-6.5 0-3.58985-2.9101-6.5-6.5-6.5-3.58985 0-6.5 2.91015-6.5 6.5 0 3.5899 2.91015 6.5 6.5 6.5z" stroke="#000001" stroke-linecap="round" stroke-linejoin="round"/><path d="m5.5 5.5c0-.29667.08797-.58668.2528-.83335.16482-.24668.39909-.43894.67317-.55247.27409-.11353.57569-.14324.86667-.08536.29097.05788.55824.20074.76802.41052s.35264.47705.41052.76803c.05788.29097.02817.59257-.08536.86666s-.30579.50835-.55246.67318c-.24668.16482-.53669.25279-.83336.25279v1" stroke="#000001" stroke-linecap="round" stroke-linejoin="round"/><path d="m7 9.5c-.14834 0-.29334.04399-.41668.1264-.12333.08241-.21946.19954-.27623.33659-.05677.13701-.07162.28781-.04268.43331s.10037.2791.20526.384.23853.1764.38401.2053c.14549.0289.29629.0141.43333-.0427.13705-.0568.25418-.1529.33659-.2762.08241-.1234.1264-.2684.1264-.4167-.00259-.1981-.08244-.38737-.22253-.52747-.1401-.14009-.32936-.21994-.52747-.22253z" fill="#000001"/></g></svg>